<svg width="48" height="48" xmlns="http://www.w3.org/2000/svg" data-name="Layer 1">
 <g>
  <title>Layer 1</title>
  <g id="svg_1">
   <path id="svg_9" fill="#74c9ec" d="m38.69854,8.2603l-0.05864,-0.0617c-5.01003,-4.94851 -16.79272,-9.03906 -27.03459,0.12006a19.65001,19.27794 0 0 0 -6.01458,10.29474c-1.11419,5.20365 0.30596,12.00066 0.30596,12.00066c-4.45166,-7.7542 -3.57968,-17.57368 2.4264,-24.47492c-0.40964,0.32518 -0.81418,0.66119 -1.20768,1.01972c-9.28661,8.48543 -9.55432,22.91824 -0.38329,31.72884l0.03739,0.03502a13.00312,12.75691 0 0 0 8.48602,3.59945a23.58409,23.13753 0 0 0 17.69699,-6.7745c5.57774,-5.47213 5.00493,-18.87022 5.00493,-18.87022l0.29916,-5.98574c5.1715,8.8623 3.90943,20.35602 -3.8083,27.92345a23.52545,23.07999 0 0 1 -11.80309,6.28424a22.22174,21.80097 0 0 0 14.14366,-5.16947c9.78464,-8.14691 10.55972,-22.55805 1.90967,-31.66964" class="cls-3"/>
   <path id="svg_10" fill="#8dc14a" d="m30.32046,37.97889l-0.02805,0.02084l0.02805,-0.02084m6.9044,-7.9468l-0.05184,0.09755l0.05184,-0.09755m0.0323,-0.06253l0,0.0075l0,-0.0075m0.07309,-0.13841l-0.03654,0.07004l0.03654,-0.07004m0.01615,-0.03252l-0.01275,0.02585l0.01275,-0.02585m0.05524,-0.10839l-0.04844,0.09589l0.04844,-0.09589m1.09804,-13.22132l-0.53967,0.40772l0,0l0.53967,-0.40855m-10.92772,-16.46808a14.07736,13.81081 0 0 1 2.055,3.39767c3.76156,0.88548 6.95709,2.77067 9.0087,4.80093l0.05864,0.0617c8.6543,9.1116 7.87921,23.52273 -1.90542,31.67298a22.22514,21.8043 0 0 1 -14.13006,5.16947a23.80336,23.35264 0 0 1 -8.9917,0.16676a24.30649,23.84624 0 0 0 27.3533,-5.30621c8.68659,-8.88564 8.99425,-23.01246 0.6799,-32.23662a24.1824,23.72451 0 0 0 -14.12836,-7.72668" class="cls-2"/>
   <path id="svg_11" fill="#429c47" d="m29.62696,3.39767c1.33686,3.2034 1.67001,7.68666 -1.7091,13.28719c-4.08536,6.772 -9.60361,10.03043 -13.23599,13.74327c-4.45421,4.55163 -0.84988,11.73719 5.06017,11.73719a7.56391,7.42068 0 0 0 1.64026,-0.1801a23.49315,23.04831 0 0 0 8.91011,-3.98549l0.02805,-0.02084l0.0187,-0.01334a23.88155,23.42935 0 0 0 2.61337,-2.21787a23.63253,23.18505 0 0 0 4.19329,-5.56635l0.02805,-0.05169l0.05184,-0.09755l0.0289,-0.05503l0,-0.0075c0.01275,-0.02251 0.02465,-0.04586 0.03654,-0.06837l0.03654,-0.07004l0,-0.00667l0.01275,-0.02585l0.0068,-0.01251l0.04844,-0.09589c0.04249,-0.08338 0.08499,-0.16676 0.12578,-0.25014a23.5212,23.07583 0 0 0 1.91307,-5.61054c0.7003,-3.50857 0.43089,-7.1372 -0.52437,-10.58907l-0.65356,-2.34877l0,0a23.64868,23.20089 0 0 1 -15.59779,34.20768a22.22514,21.8043 0 0 0 14.13006,-5.16947c9.78464,-8.14691 10.55972,-22.55805 1.90967,-31.66964l-0.05864,-0.0617c-2.05585,-2.03027 -5.25139,-3.91879 -9.0087,-4.80093" class="cls-4"/>
  </g>
 </g>
</svg>